# xmcd
#
# Track frame offsets: 
#        150
#        12118
#        29249
#        41955
#        53067
#        68479
#        80110
#        93153
#        112534
#        123146
#        135202
#        148208
#        160845
#        171176
#
# Disc length: 2415 seconds
#
# Revision: 0
# Processed by: cddbd v1.5.2PL0 Copyright (c) Steve Scherf et al.
# Submitted via: ExactAudioCopy v1.0b3
#
DISCID=b1096d0e
DTITLE=Various Artist - Compilation - Blues Essentials De Luxe cd1 - The Grea
DTITLE=t Blues Songbook
DYEAR=2013
DGENRE=Blues
TTITLE0=John Lee Hooker - Boom Boom
TTITLE1=Howlin' Wolf - Little Red Rooster
TTITLE2=Muddy Waters - I'm Your) Hoochie Coochie Man
TTITLE3=Bo Diddley - Diddy Wah Diddy
TTITLE4=Albert King - Born Under A Bad Sign
TTITLE5=Sonny Boy Williamson - Don't Start Me Talking
TTITLE6=Elmore James - Dust My Broom
TTITLE7=B.B.King - Sweet Sixteen
TTITLE8=Robert Johnson - Love In Vain
TTITLE9=Little Walter - My Babe
TTITLE10=Leadbelly - The Midnight Special
TTITLE11=Jackie Brenston and Ike Turner - Rocket 88
TTITLE12=Dale Hawkins - Suzie Q
TTITLE13=Buddy Guy - Money
EXTD=
EXTT0=
EXTT1=
EXTT2=
EXTT3=
EXTT4=
EXTT5=
EXTT6=
EXTT7=
EXTT8=
EXTT9=
EXTT10=
EXTT11=
EXTT12=
EXTT13=
PLAYORDER=
